<?xml version="1.0" encoding="UTF-8"?><svg id="Layer_1" xmlns="http://www.w3.org/2000/svg" viewBox="0 0 45 45"><defs><style>.cls-1{fill:#fff;}</style></defs><path class="cls-1" d="m29.64,8.28c.71.33.97.89.95,1.66-.03,1.19,0,2.39,0,3.58,0,1.02-.56,1.57-1.58,1.58-.81,0-1.63,0-2.44.02-.63.01-.74.12-.76.76-.02.65,0,1.31,0,1.99.11,0,.21.01.31.01.93,0,1.85,0,2.78,0,.99,0,1.54.56,1.54,1.55,0,1.36,0,2.72,0,4.08,0,.97-.57,1.54-1.54,1.54-1.02,0-2.03,0-3.09,0,0,.13-.02.24-.02.36,0,3.24,0,6.48-.01,9.72,0,.32-.08.67-.23.95-.22.43-.64.64-1.13.64-1.54,0-3.07.01-4.61,0-.74,0-1.28-.55-1.34-1.29-.01-.13-.01-.26-.01-.39,0-3.2,0-6.41,0-9.61v-.38c-.83,0-1.62,0-2.42,0-.17,0-.33,0-.5-.04-.63-.11-1.11-.63-1.11-1.27-.02-1.52-.02-3.04,0-4.55,0-.72.57-1.28,1.29-1.3.79-.02,1.57,0,2.36-.01.11,0,.22,0,.36,0,0-.12.01-.21.02-.31,0-.83-.01-1.67.03-2.5.09-1.72.61-3.28,1.78-4.59,1.09-1.22,2.47-1.88,4.06-2.14.07-.01.14-.04.21-.06,1.7,0,3.41,0,5.11,0Zm-5.54,26.76c0-.14,0-.25,0-.37,0-3.4,0-6.8,0-10.19,0-.75.35-1.09,1.08-1.09,1.08,0,2.17,0,3.25,0h.3v-3.84c-.12,0-.22,0-.32,0-1.09,0-2.18,0-3.28,0-.61,0-1.01-.33-1.02-.9-.02-1.05-.03-2.11.04-3.16.08-1.17.73-1.84,1.89-1.97.82-.1,1.66-.06,2.49-.09.12,0,.24,0,.36,0v-3.5s-.06-.03-.09-.03c-1.19,0-2.39-.03-3.58.02-1.23.05-2.36.43-3.31,1.26-1.19,1.05-1.7,2.42-1.77,3.97-.05,1.08-.02,2.17-.03,3.25,0,.81-.34,1.15-1.14,1.15-.79,0-1.57,0-2.36,0h-.52v3.84c.13,0,.23,0,.33,0,.9,0,1.8,0,2.69,0,.61,0,.97.35,1,.95,0,.09,0,.19,0,.28,0,3.35,0,6.7,0,10.05v.37h3.98Z"/></svg>