<?xml version="1.0" encoding="UTF-8"?><svg id="Layer_1" xmlns="http://www.w3.org/2000/svg" viewBox="0 0 45 45"><defs><style>.cls-1{fill:#fff;}</style></defs><path class="cls-1" d="m15.51,8.42c4.66,0,9.31,0,13.97,0,.09.02.18.04.27.05.76.08,1.51.25,2.2.57,2.98,1.41,4.58,3.77,4.62,7.07.05,4.26.01,8.52.01,12.79,0,1.34-.29,2.61-.97,3.76-1.52,2.58-3.8,3.9-6.8,3.92-4.21.02-8.41.01-12.62,0-.53,0-1.07-.03-1.58-.14-3.11-.69-5.09-2.59-5.95-5.65-.12-.42-.16-.86-.23-1.29,0-4.66,0-9.31,0-13.97.05-.3.07-.6.14-.89.7-3.11,2.59-5.11,5.66-5.97.42-.12.86-.16,1.29-.23Zm-5.44,14.07c0,2.11,0,4.22,0,6.32,0,.46.03.94.13,1.39.64,2.84,3.01,4.72,5.92,4.73,4.24,0,8.49,0,12.73,0,.46,0,.94-.04,1.39-.15,2.86-.69,4.68-3.02,4.68-5.96,0-4.21,0-8.41,0-12.62,0-.46-.03-.94-.13-1.39-.64-2.82-2.99-4.72-5.87-4.73-4.28-.01-8.56,0-12.84,0-.86,0-1.7.15-2.48.53-2.31,1.13-3.5,2.99-3.53,5.56-.03,2.11,0,4.22,0,6.32Z"/><path class="cls-1" d="m30.19,22.51c-.01,4.24-3.49,7.7-7.71,7.69-4.24-.01-7.7-3.49-7.69-7.71.01-4.24,3.49-7.7,7.71-7.69,4.24.01,7.7,3.49,7.69,7.71Zm-7.71-6.06c-3.33,0-6.05,2.74-6.04,6.06.01,3.32,2.72,6.03,6.04,6.03,3.32,0,6.05-2.72,6.05-6.05,0-3.33-2.73-6.05-6.06-6.05Z"/><path class="cls-1" d="m30.34,16.61c-1.25-.03-2.27-1.09-2.23-2.31.04-1.24,1.07-2.26,2.29-2.23,1.25.02,2.28,1.07,2.26,2.29-.02,1.26-1.08,2.29-2.32,2.26Zm.66-2.28c0-.33-.29-.61-.62-.61-.33,0-.62.29-.62.61,0,.33.3.64.64.63.33-.01.61-.3.6-.63Z"/></svg>