<?xml version="1.0" encoding="UTF-8"?><svg id="Layer_1" xmlns="http://www.w3.org/2000/svg" viewBox="0 0 45 45"><defs><style>.cls-1{fill:#fff;}</style></defs><path class="cls-1" d="m37.29,30.72c-.24.59-.67.78-1.3.78-9.02-.01-18.04,0-27.06,0-.68,0-1.06-.25-1.19-.77-.03-.12-.03-.25-.03-.37,0-5.24,0-10.47,0-15.71,0-.72.41-1.13,1.12-1.13,9.11,0,18.21,0,27.32,0,.57,0,.91.28,1.14.76v16.47Zm-26.36-1h23.14c-2.8-2.43-5.55-4.83-8.3-7.23-.85.56-1.68,1.12-2.51,1.67-.6.4-.91.4-1.51,0-.83-.55-1.67-1.11-2.51-1.67-2.76,2.4-5.51,4.8-8.3,7.23Zm.55-14.48c.09.07.13.1.17.13,3.56,2.37,7.12,4.73,10.67,7.1.15.1.25.07.38-.01,3.53-2.35,7.07-4.7,10.6-7.05.06-.04.1-.09.19-.16H11.48Zm-2.03,13.47c2.79-2.43,5.52-4.81,8.28-7.21-2.77-1.84-5.51-3.66-8.28-5.5v12.72Zm26.08-.01v-12.7c-2.77,1.84-5.51,3.66-8.27,5.5,2.76,2.4,5.5,4.79,8.27,7.2Z"/></svg>