<?xml version="1.0" encoding="UTF-8"?><svg id="Layer_1" xmlns="http://www.w3.org/2000/svg" viewBox="0 0 45 45"><defs><style>.cls-1{fill:#fff;}</style></defs><path class="cls-1" d="m13.81,9.7c.68.16,1.25.56,1.85.9,5.65,3.26,11.28,6.53,16.94,9.77,1.28.73,1.61,2.17,1.03,3.25-.23.42-.55.72-.96.96-5.98,3.45-11.96,6.91-17.95,10.36-1.69.97-3.6-.16-3.6-2.11,0-6.89,0-13.78,0-20.67,0-1.25.73-2.15,1.96-2.42.03,0,.06-.03.09-.04.22,0,.43,0,.65,0Zm-1.17,2.05v21.35c3.43-3.58,6.83-7.12,10.23-10.67-3.41-3.55-6.79-7.09-10.23-10.67Zm11.27,11.76c-3.11,3.24-6.2,6.47-9.29,9.7.01.01.02.03.03.04,3.98-2.3,7.97-4.6,11.97-6.91-.91-.95-1.8-1.87-2.71-2.82Zm4.05,2.05c1.31-.76,2.59-1.5,3.88-2.24.76-.44.76-1.2,0-1.64-1.26-.73-2.52-1.46-3.78-2.19-.06-.04-.13-.07-.2-.11-.97,1.01-1.93,2.02-2.91,3.03,1,1.05,2,2.09,3.01,3.14Zm-1.43-6.95c-3.84-2.22-7.67-4.43-11.49-6.64-.01.02-.03.04-.04.06,2.97,3.1,5.94,6.19,8.92,9.31.88-.92,1.74-1.81,2.61-2.73Z"/></svg>