<?xml version="1.0" encoding="UTF-8"?><svg id="Layer_1" xmlns="http://www.w3.org/2000/svg" viewBox="0 0 45 45"><defs><style>.cls-1{fill:#fff;}</style></defs><path class="cls-1" d="m29.31,36.25c-.39-.06-.77-.12-1.16-.19-1.5-.28-2.89-.84-4.25-1.51-2.23-1.09-4.3-2.43-6.15-4.08-3.72-3.29-6.66-7.14-8.31-11.88-.41-1.17-.65-2.38-.63-3.63.03-1.2.42-2.26,1.27-3.12.75-.76,1.48-1.56,2.29-2.26,1.31-1.14,2.65-1.13,3.91.06,1.27,1.2,2.49,2.44,3.68,3.72.98,1.04.97,2.46.02,3.52-.67.74-1.4,1.43-2.11,2.14-.14.14-.15.24-.07.41.71,1.49,1.74,2.74,2.85,3.94,1.13,1.21,2.38,2.3,3.78,3.19.37.23.77.42,1.14.64.15.09.24.07.36-.05.59-.61,1.2-1.21,1.8-1.8.47-.47,1-.84,1.67-.96.91-.15,1.68.14,2.32.78,1.17,1.15,2.32,2.31,3.48,3.47,1.24,1.25,1.34,2.66.19,3.98-.79.92-1.67,1.76-2.56,2.6-.63.59-1.42.88-2.28.98-.06,0-.12.03-.18.05h-1.07Zm.54-1.38c.83.02,1.59-.2,2.19-.78.8-.78,1.58-1.58,2.34-2.4.57-.62.56-1.29-.03-1.89-1.2-1.24-2.43-2.45-3.66-3.66-.49-.48-1.13-.48-1.68-.05-.13.1-.24.21-.36.33-.66.66-1.31,1.32-1.98,1.97-.45.44-.91.52-1.47.24-.39-.2-.78-.4-1.15-.62-1.77-1.06-3.31-2.41-4.69-3.93-1.17-1.29-2.23-2.65-2.95-4.26-.31-.7-.24-1.11.31-1.64.66-.64,1.33-1.28,1.97-1.94.75-.77.74-1.39.01-2.17-.01-.01-.02-.03-.04-.04-1.1-1.1-2.2-2.2-3.3-3.3-.18-.17-.38-.34-.6-.44-.62-.29-1.13-.02-1.57.41-.68.67-1.38,1.33-2.02,2.04-.3.33-.57.72-.74,1.13-.37.89-.27,1.83-.09,2.75.36,1.78,1.07,3.44,1.95,5.02,1.56,2.8,3.54,5.26,5.91,7.41,2.37,2.15,5.04,3.85,8.02,5.03,1.16.46,2.36.76,3.62.8Z"/></svg>