<?xml version="1.0" encoding="UTF-8"?><svg id="Layer_1" xmlns="http://www.w3.org/2000/svg" viewBox="0 0 45 45"><defs><style>.cls-1{fill:#fff;}</style></defs><path class="cls-1" d="m23.66,9c.46.1.93.18,1.38.31,2.01.55,3.65,1.67,4.94,3.31.91,1.16,1.51,2.46,1.82,3.9.28,1.31.25,2.62,0,3.92-.36,1.92-1.08,3.72-1.99,5.44-1.93,3.65-4.38,6.92-7.17,9.95-.04.04-.08.1-.14.17-.36-.39-.69-.74-1.01-1.11-2.04-2.35-3.91-4.83-5.49-7.52-1.18-2.02-2.18-4.12-2.71-6.42-.71-3.13-.18-6.01,1.86-8.52,1.54-1.89,3.55-3.01,5.98-3.38.07-.01.13-.04.2-.05.77,0,1.55,0,2.32,0Zm-1.18,24.66c.06-.06.09-.08.11-.11,2.31-2.73,4.43-5.59,6.04-8.79.75-1.5,1.36-3.06,1.65-4.72.38-2.13.04-4.11-1.14-5.92-1.05-1.61-2.51-2.71-4.35-3.26-2.05-.61-4.05-.43-5.95.57-1.74.91-2.98,2.29-3.71,4.11-.64,1.58-.69,3.21-.34,4.86.33,1.56.92,3.03,1.64,4.46,1.18,2.35,2.65,4.5,4.26,6.58.58.75,1.19,1.47,1.8,2.23Z"/><path class="cls-1" d="m22.5,24.85c-3.52,0-6.38-2.87-6.38-6.39,0-3.52,2.89-6.41,6.4-6.4,3.52.02,6.38,2.89,6.37,6.4-.01,3.52-2.88,6.39-6.39,6.39Zm-4.83-6.4c-.02,2.64,2.17,4.83,4.82,4.84,2.65,0,4.82-2.15,4.84-4.82.02-2.64-2.16-4.82-4.82-4.83-2.66,0-4.82,2.15-4.84,4.81Z"/></svg>