<?xml version="1.0" encoding="UTF-8"?><svg id="Layer_1" xmlns="http://www.w3.org/2000/svg" viewBox="0 0 45 45"><defs><style>.cls-1{fill:#fff;}</style></defs><path class="cls-1" d="m8.27,35.67c0-.15,0-.3,0-.44.05-.13.09-.26.14-.38.71-2.02,1.41-4.05,2.13-6.06.1-.27.08-.49-.05-.75-.92-1.88-1.37-3.88-1.36-5.98.02-3.4,1.12-6.4,3.35-8.98,2.14-2.47,4.84-4,8.06-4.57.52-.09,1.04-.15,1.56-.22.56,0,1.11,0,1.67,0,.08.02.16.04.24.05.76.12,1.53.18,2.27.37,7.75,1.94,12.31,10.12,9.74,17.65-1.79,5.25-5.55,8.39-11.02,9.35-2.82.49-5.54.02-8.12-1.23-.2-.1-.36-.11-.57-.03-2.05.73-4.11,1.44-6.17,2.17-.35.12-.7.18-1.05.03-.44-.18-.66-.54-.81-.96Zm1.92-.87c.14-.04.22-.07.29-.09,1.76-.62,3.53-1.22,5.28-1.86.65-.24,1.21-.2,1.83.11,2.42,1.21,4.99,1.54,7.64,1.03,6.7-1.31,10.98-7.83,9.53-14.5-1.3-6.01-7.02-10.14-13.11-9.46-2.81.31-5.24,1.45-7.25,3.44-2.22,2.21-3.42,4.88-3.58,8.01-.11,2.15.33,4.19,1.31,6.11.24.48.28.93.09,1.44-.34.92-.65,1.85-.98,2.77-.34.98-.69,1.97-1.05,3Z"/><path class="cls-1" d="m25.12,24.04c.24-.27.46-.57.73-.81.61-.53,1.48-.55,2.08,0,.72.66,1.4,1.35,2.06,2.06.55.6.56,1.48,0,2.08-.58.63-1.2,1.24-1.84,1.81-.47.42-1.08.5-1.7.47-1.25-.05-2.36-.53-3.4-1.16-2.89-1.74-5.19-4.06-6.81-7.03-.5-.91-.86-1.88-.9-2.95-.03-.77.18-1.44.73-1.99.45-.45.9-.91,1.36-1.35.75-.73,1.7-.73,2.44,0,.58.57,1.16,1.15,1.73,1.73.73.74.74,1.69,0,2.44-.2.21-.41.4-.63.62.96,1.75,2.3,3.09,4.13,4.1Zm3.51,2.31c-.58-.59-1.17-1.18-1.8-1.81-.24.25-.48.52-.75.78-.5.5-1.05.57-1.67.24-2.16-1.15-3.82-2.8-4.97-4.96-.34-.64-.28-1.18.23-1.69.26-.26.53-.51.78-.75-.63-.63-1.22-1.22-1.84-1.83-.4.4-.8.83-1.23,1.23-.33.3-.41.65-.37,1.07.08.75.36,1.43.72,2.08,1.38,2.52,3.34,4.51,5.73,6.07.79.52,1.63.94,2.57,1.14.38.08.81.18,1.12-.09.53-.47,1-1.01,1.46-1.48Z"/></svg>